# xmcd
#
# Track frame offsets: 
#        150
#        18233
#        36752
#        54158
#        72257
#        89482
#        99570
#        112718
#        126865
#        139225
#        157211
#
# Disc length: 2382 seconds
#
# Revision: 0
# Processed by: cddbd v1.5.2PL0 Copyright (c) Steve Scherf et al.
# Submitted via: ExactAudioCopy v0.99pb5
#
DISCID=8e094c0b
DTITLE=Honeyhoney - Billy Jack
DYEAR=2011
DGENRE=Country
TTITLE0=Angel of Death
TTITLE1=Glad I've Done What I Did
TTITLE2=Ohio
TTITLE3=Don't Know How
TTITLE4=Turn That Finger Around
TTITLE5=I Don't Mind
TTITLE6=Old School Friends
TTITLE7=Let's Get Wrecked
TTITLE8=LA River
TTITLE9=All On You
TTITLE10=Thin Line
EXTD=
EXTT0=
EXTT1=
EXTT2=
EXTT3=
EXTT4=
EXTT5=
EXTT6=
EXTT7=
EXTT8=
EXTT9=
EXTT10=
PLAYORDER=
